<svg width="48" height="48" viewBox="0 0 48 48" fill="none" xmlns="http://www.w3.org/2000/svg">
<path d="M10.144 2.39626e-05C8.81108 -0.00287633 7.49069 0.257526 6.25865 0.766283C5.02662 1.27504 3.9072 2.02213 2.96467 2.96467C2.02213 3.9072 1.27504 5.02662 0.766283 6.25865C0.257526 7.49069 -0.00287633 8.81108 2.39626e-05 10.144V37.856C-0.00287633 39.189 0.257526 40.5094 0.766283 41.7414C1.27504 42.9734 2.02213 44.0928 2.96467 45.0354C3.9072 45.9779 5.02662 46.725 6.25865 47.2338C7.49069 47.7425 8.81108 48.0029 10.144 48H37.856C39.189 48.0029 40.5094 47.7425 41.7414 47.2338C42.9734 46.725 44.0928 45.9779 45.0354 45.0354C45.9779 44.0928 46.725 42.9734 47.2338 41.7414C47.7425 40.5094 48.0029 39.189 48 37.856V10.144C48.0029 8.81108 47.7425 7.49069 47.2338 6.25865C46.725 5.02662 45.9779 3.9072 45.0354 2.96467C44.0928 2.02213 42.9734 1.27504 41.7414 0.766283C40.5094 0.257526 39.189 -0.00287633 37.856 2.39626e-05H10.144ZM29.656 11.676C29.908 11.676 30.162 11.774 30.364 11.976L36.02 17.632C36.1158 17.7232 36.1921 17.8329 36.2442 17.9544C36.2963 18.0759 36.3232 18.2068 36.3232 18.339C36.3232 18.4713 36.2963 18.6021 36.2442 18.7236C36.1921 18.8452 36.1158 18.9549 36.02 19.046C35.9289 19.1418 35.8192 19.2181 35.6976 19.2702C35.5761 19.3223 35.4453 19.3492 35.313 19.3492C35.1808 19.3492 35.0499 19.3223 34.9284 19.2702C34.8069 19.2181 34.6972 19.1418 34.606 19.046L33.898 18.34L29.658 14.098L28.95 13.39C28.8542 13.2989 28.778 13.1892 28.7259 13.0676C28.6737 12.9461 28.6469 12.8153 28.6469 12.683C28.6469 12.5508 28.6737 12.4199 28.7259 12.2984C28.778 12.1769 28.8542 12.0672 28.95 11.976C29.042 11.8817 29.1517 11.8067 29.2729 11.7552C29.3941 11.7037 29.5243 11.6768 29.656 11.676ZM29.656 16.926L31.07 18.34L18.344 31.07L16.93 29.656L29.656 16.926ZM12.684 28.646C12.936 28.646 13.188 28.746 13.39 28.95L14.098 29.656L14.07 29.684L14.778 30.39L18.318 33.926L18.344 33.898L19.05 34.606C19.1458 34.6972 19.2221 34.8069 19.2742 34.9284C19.3263 35.0499 19.3532 35.1808 19.3532 35.313C19.3532 35.4453 19.3263 35.5761 19.2742 35.6976C19.2221 35.8192 19.1458 35.9289 19.05 36.02C18.9589 36.1158 18.8492 36.1921 18.7277 36.2442C18.6061 36.2963 18.4753 36.3232 18.343 36.3232C18.2108 36.3232 18.0799 36.2963 17.9584 36.2442C17.8369 36.1921 17.7272 36.1158 17.636 36.02L11.976 30.364C11.8802 30.2729 11.804 30.1632 11.7519 30.0417C11.6997 29.9201 11.6729 29.7893 11.6729 29.657C11.6729 29.5248 11.6997 29.3939 11.7519 29.2724C11.804 29.1509 11.8802 29.0412 11.976 28.95C12.0679 28.8547 12.1778 28.7785 12.2993 28.726C12.4209 28.6735 12.5516 28.6456 12.684 28.644V28.646Z" fill="#EFEEF0"/>
</svg>
